<?xml version="1.0" encoding="utf-8"?>
<!-- Generator: Adobe Illustrator 25.4.1, SVG Export Plug-In . SVG Version: 6.00 Build 0)  -->
<svg version="1.1" id="레이어_1" xmlns="http://www.w3.org/2000/svg" xmlns:xlink="http://www.w3.org/1999/xlink" x="0px"
	 y="0px" viewBox="0 0 100 125" style="enable-background:new 0 0 100 125;" xml:space="preserve">
<path d="M34.7,48.5l7,9.3l16.6-21.8l9.5,12.5h22.6c2.8-5.6,4.6-11.4,4.6-17.1C95,18.9,84.9,8.9,72.5,8.9C60.1,8.9,50,18.9,50,31.4
	C50,18.9,39.9,8.9,27.5,8.9C15.1,8.9,5,18.9,5,31.4c0,5.7,1.8,11.5,4.6,17.1H34.7z"/>
<path d="M65.3,53.5l-7-9.3L41.7,66l-9.5-12.5H12.4C25.1,74.1,50,91.1,50,91.1s24.9-17,37.6-37.6L65.3,53.5z"/>
</svg>
