<?xml version="1.0" encoding="utf-8"?>
<!-- Generator: Adobe Illustrator 25.4.1, SVG Export Plug-In . SVG Version: 6.00 Build 0)  -->
<svg version="1.1" id="레이어_1" xmlns:serif="http://www.serif.com/"
	 xmlns="http://www.w3.org/2000/svg" xmlns:xlink="http://www.w3.org/1999/xlink" x="0px" y="0px" viewBox="0 0 100 100"
	 style="enable-background:new 0 0 100 100;" xml:space="preserve">
<style type="text/css">
	.st0{fill-rule:evenodd;clip-rule:evenodd;}
</style>
<g transform="matrix(1,0,0,1,-32,-224)">
	<g>
		<path class="st0" d="M91.2,240.1c-0.4-4.2-3.8-7.5-8-7.6c0,0-0.1,0-0.1,0c-0.8,0-1.5,0-2.3,0c0,0,0,0,0,0c-4.2,0.1-7.6,3.3-8,7.5
			c-0.1,0.5-0.1,1-0.1,1.4c-0.1,1-0.8,2-1.7,2.3c-0.8,0.3-1.6,0.6-2.4,1c0,0,0,0,0,0c-1,0.5-2.1,0.3-2.9-0.4l-1.1-0.9
			c-3.2-2.7-8-2.6-11,0.3c0,0-0.1,0.1-0.1,0.1c-0.5,0.5-1.1,1.1-1.6,1.6c0,0,0,0,0,0c-2.9,3-3,7.7-0.3,10.9c0.3,0.4,0.6,0.8,0.9,1.1
			c0.7,0.8,0.8,1.9,0.4,2.9c-0.4,0.8-0.7,1.6-1,2.4c0,0,0,0,0,0c-0.4,1-1.3,1.7-2.3,1.8l-1.4,0.1c-4.2,0.4-7.5,3.8-7.6,8
			c0,0,0,0.1,0,0.1c0,0.8,0,1.5,0,2.3c0,0,0,0,0,0c0.1,4.2,3.3,7.6,7.5,8c0.5,0.1,1,0.1,1.4,0.1c1,0.1,2,0.8,2.3,1.7
			c0.3,0.8,0.6,1.6,1,2.4c0,0,0,0,0,0c0.5,1,0.3,2.1-0.4,2.9l-0.9,1.1c-2.7,3.2-2.6,8,0.3,11c0,0,0.1,0.1,0.1,0.1
			c0.5,0.5,1.1,1.1,1.6,1.6c0,0,0,0,0,0c3,2.9,7.7,3,10.9,0.3c0.4-0.3,0.8-0.6,1.1-0.9c0.8-0.7,1.9-0.8,2.9-0.4
			c0.8,0.4,1.6,0.7,2.4,1c0,0,0,0,0,0c1,0.4,1.7,1.3,1.8,2.3l0.1,1.4c0.4,4.2,3.8,7.5,8,7.6c0,0,0.1,0,0.1,0c0.8,0,1.5,0,2.3,0
			c0,0,0,0,0,0c4.2-0.1,7.6-3.3,8-7.5c0.1-0.5,0.1-1,0.1-1.4c0.1-1,0.8-2,1.7-2.3c0.8-0.3,1.6-0.6,2.4-1c0,0,0,0,0,0
			c1-0.5,2.1-0.3,2.9,0.4l1.1,0.9c3.2,2.7,8,2.6,11-0.3c0,0,0.1-0.1,0.1-0.1c0.5-0.5,1.1-1.1,1.6-1.6c0,0,0,0,0,0
			c2.9-3,3-7.7,0.3-10.9c-0.3-0.4-0.6-0.8-0.9-1.1c-0.7-0.8-0.8-1.9-0.4-2.9c0.4-0.8,0.7-1.6,1-2.4c0,0,0,0,0,0
			c0.4-1,1.3-1.7,2.3-1.8l1.4-0.1c4.2-0.4,7.5-3.8,7.6-8c0,0,0-0.1,0-0.1c0-0.8,0-1.5,0-2.3c0,0,0,0,0,0c-0.1-4.2-3.3-7.6-7.5-8
			c-0.5-0.1-1-0.1-1.4-0.1c-1-0.1-2-0.8-2.3-1.7c-0.3-0.8-0.6-1.6-1-2.4c0,0,0,0,0,0c-0.5-1-0.3-2.1,0.4-2.9l0.9-1.1
			c2.7-3.2,2.6-8-0.3-11c0,0-0.1-0.1-0.1-0.1c-0.5-0.5-1.1-1.1-1.6-1.6c0,0,0,0,0,0c-3-2.9-7.7-3-10.9-0.3c-0.4,0.3-0.8,0.6-1.1,0.9
			c-0.8,0.7-1.9,0.8-2.9,0.4c-0.8-0.4-1.6-0.7-2.4-1c0,0,0,0,0,0c-1-0.4-1.7-1.3-1.8-2.3L91.2,240.1z M85.7,240.6l0.2,1.5
			c0.3,3.1,2.4,5.9,5.4,7c0.6,0.2,1.2,0.5,1.8,0.8c0,0,0,0,0.1,0c2.9,1.4,6.4,0.9,8.9-1.2l1.1-0.9c1.1-0.9,2.6-0.9,3.6,0.1
			c0.5,0.5,1,1,1.5,1.5c0.9,1,1,2.6,0.1,3.6l-0.9,1.1c-2,2.4-2.5,5.8-1.1,8.7c0.3,0.6,0.5,1.2,0.7,1.8c0,0,0,0,0,0.1
			c1.1,3,3.9,5.2,7.1,5.4l1.4,0.1c1.4,0.1,2.5,1.2,2.5,2.6c0,0.7,0,1.4,0,2.1c-0.1,1.4-1.1,2.5-2.5,2.6l-1.5,0.2
			c-3.1,0.3-5.9,2.4-7,5.4c-0.2,0.6-0.5,1.2-0.8,1.8c0,0,0,0,0,0.1c-1.4,2.9-0.9,6.4,1.2,8.9l0.9,1.1c0.9,1.1,0.9,2.6-0.1,3.6
			c-0.5,0.5-1,1-1.5,1.5c-1,0.9-2.6,1-3.6,0.1l-1.1-0.9c-2.4-2-5.8-2.5-8.7-1.1c-0.6,0.3-1.2,0.5-1.8,0.7c0,0,0,0-0.1,0
			c-3,1.1-5.2,3.9-5.4,7.1l-0.1,1.4c-0.1,1.4-1.2,2.5-2.6,2.5c-0.7,0-1.4,0-2.1,0c-1.4-0.1-2.5-1.1-2.6-2.5l-0.2-1.5
			c-0.3-3.1-2.4-5.9-5.4-7c-0.6-0.2-1.2-0.5-1.8-0.8c0,0,0,0-0.1,0c-2.9-1.4-6.4-0.9-8.9,1.2l-1.1,0.9c-1.1,0.9-2.6,0.9-3.6-0.1
			c-0.5-0.5-1-1-1.5-1.5c-0.9-1-1-2.6-0.1-3.6l0.9-1.1c2-2.4,2.5-5.8,1.1-8.7c-0.3-0.6-0.5-1.2-0.7-1.8c0,0,0,0,0-0.1
			c-1.1-3-3.9-5.2-7.1-5.4l-1.4-0.1c-1.4-0.1-2.5-1.2-2.5-2.6c0-0.7,0-1.4,0-2.1c0.1-1.4,1.1-2.5,2.5-2.6l1.5-0.2
			c3.1-0.3,5.9-2.4,7-5.4c0.2-0.6,0.5-1.2,0.8-1.8c0,0,0,0,0-0.1c1.4-2.9,0.9-6.4-1.2-8.9l-0.9-1.1c-0.9-1.1-0.9-2.6,0.1-3.6
			c0.5-0.5,1-1,1.5-1.5c1-0.9,2.6-1,3.6-0.1l1.1,0.9c2.4,2,5.8,2.5,8.7,1.1c0.6-0.3,1.2-0.5,1.8-0.7c0,0,0,0,0.1,0
			c3-1.1,5.2-3.9,5.4-7.1l0.1-1.4c0.1-1.4,1.2-2.5,2.6-2.5c0.7,0,1.4,0,2.1,0C84.4,238.1,85.6,239.2,85.7,240.6z"/>
		<path class="st0" d="M82,254.6c-10.7,0-19.4,8.7-19.4,19.4s8.7,19.4,19.4,19.4s19.4-8.7,19.4-19.4S92.7,254.6,82,254.6z M82,260.2
			c7.6,0,13.8,6.2,13.8,13.8s-6.2,13.8-13.8,13.8s-13.8-6.2-13.8-13.8S74.4,260.2,82,260.2z"/>
	</g>
</g>
</svg>
