<?xml version="1.0" encoding="utf-8"?>
<!-- Generator: Adobe Illustrator 25.4.1, SVG Export Plug-In . SVG Version: 6.00 Build 0)  -->
<svg version="1.1" id="레이어_1" xmlns="http://www.w3.org/2000/svg" xmlns:xlink="http://www.w3.org/1999/xlink" x="0px"
	 y="0px" viewBox="0 0 100 100" style="enable-background:new 0 0 100 100;" xml:space="preserve">
<g>
	<g>
		<path d="M10.8,50c0,21.7,17.6,39.2,39.2,39.2S89.2,71.7,89.2,50S71.7,10.8,50,10.8S10.8,28.3,10.8,50z M52.4,35.7l18.5,18.5
			c1.3,1.3,1.3,3.5,0,4.8c-1.3,1.3-3.5,1.3-4.8,0L50,42.9L33.9,59c-1.3,1.3-3.5,1.3-4.8,0c-0.7-0.7-1-1.5-1-2.4s0.3-1.7,1-2.4
			l18.5-18.5C48.9,34.4,51.1,34.4,52.4,35.7z"/>
	</g>
</g>
</svg>
