<?xml version="1.0" encoding="utf-8"?>
<!-- Generator: Adobe Illustrator 25.4.1, SVG Export Plug-In . SVG Version: 6.00 Build 0)  -->
<svg version="1.1" id="레이어_1" xmlns="http://www.w3.org/2000/svg" xmlns:xlink="http://www.w3.org/1999/xlink" x="0px"
	 y="0px" viewBox="0 0 100 100" style="enable-background:new 0 0 100 100;" xml:space="preserve">
<path d="M93.4,85.6L71.1,63.3c4.5-6.1,7.1-13.6,7.1-21.7C78.2,21.4,61.8,5,41.6,5C21.4,5,5,21.4,5,41.6c0,20.2,16.4,36.6,36.6,36.6
	c8.1,0,15.6-2.7,21.7-7.1l22.3,22.3c2.2,2.2,5.7,2.2,7.8,0S95.5,87.7,93.4,85.6z M41.6,67.1C27.5,67.1,16,55.7,16,41.6
	C16,27.5,27.5,16,41.6,16c14.1,0,25.5,11.5,25.5,25.5C67.1,55.7,55.7,67.1,41.6,67.1z"/>
</svg>
