<?xml version="1.0" encoding="utf-8"?>
<!-- Generator: Adobe Illustrator 25.4.1, SVG Export Plug-In . SVG Version: 6.00 Build 0)  -->
<svg version="1.1" id="레이어_1" xmlns="http://www.w3.org/2000/svg" xmlns:xlink="http://www.w3.org/1999/xlink" x="0px"
	 y="0px" viewBox="0 0 50 50" style="enable-background:new 0 0 50 50;" xml:space="preserve">
<g>
	<g>
		<path d="M17.9,35.7H7.2c-1,0-1.8-0.8-1.8-1.8s0.8-1.8,1.8-1.8h10.7c1,0,1.8,0.8,1.8,1.8C19.7,34.9,18.9,35.7,17.9,35.7z"/>
	</g>
	<g>
		<path d="M17.9,28.6h-7.2c-0.9,0-1.7-0.8-1.7-1.8S9.8,25,10.8,25H18c1,0,1.8,0.8,1.8,1.8S18.9,28.6,17.9,28.6z"/>
	</g>
	<g>
		<path d="M44.5,42.8H3.7c-1,0-1.8-0.8-1.8-1.8s0.8-1.8,1.8-1.8h40.9c1,0,1.8,0.8,1.8,1.8C46.2,42,45.5,42.8,44.5,42.8z"/>
	</g>
	<g>
		<path d="M10.8,23.2c-1,0-1.8-0.8-1.8-1.8v-7.1c0-1,0.8-1.8,1.8-1.8s1.8,0.8,1.8,1.8v7.1C12.6,22.4,11.8,23.2,10.8,23.2z"/>
	</g>
	<g>
		<path d="M28.6,29c-1.4,0-2.7-0.4-3.9-1.3c-0.8-0.6-0.9-1.7-0.3-2.5s1.7-0.9,2.5-0.3c1,0.8,2.3,0.8,3.3,0c0.8-0.6,1.9-0.5,2.5,0.3
			s0.5,1.9-0.3,2.5C31.2,28.5,29.9,29,28.6,29z"/>
	</g>
	<g>
		<path d="M31.2,28c-0.5,0-1-0.2-1.4-0.7c-0.6-0.8-0.5-1.9,0.3-2.5l15-11.9c0.8-0.6,1.9-0.5,2.5,0.3s0.5,1.9-0.3,2.5l-15,11.9
			C32,27.9,31.7,28,31.2,28z"/>
	</g>
	<g>
		<path d="M25.8,28c-0.4,0-0.8-0.1-1.1-0.4l-15-11.8c-0.8-0.6-0.9-1.7-0.3-2.5c0.6-0.8,1.7-0.9,2.5-0.3l15,11.9
			c0.8,0.6,0.9,1.7,0.3,2.5C26.8,27.8,26.2,28,25.8,28z"/>
	</g>
	<g>
		<path d="M10.8,16.1c-1,0-1.8-0.8-1.8-1.8c0-2,1.6-3.6,3.6-3.6c1,0,1.8,0.8,1.8,1.8s-0.8,1.8-1.8,1.8l0,0
			C12.6,15.3,11.8,16.1,10.8,16.1z"/>
	</g>
	<g>
		<path d="M44.5,14.4h-32c-1,0-1.8-0.8-1.8-1.8s0.8-1.8,1.8-1.8h32c1,0,1.8,0.8,1.8,1.8S45.5,14.4,44.5,14.4z"/>
	</g>
	<g>
		<path d="M46.2,41c-1,0-1.8-0.8-1.8-1.8V14.4c0-1,0.8-1.8,1.8-1.8s1.8,0.8,1.8,1.8v24.9C48,40.2,47.2,41,46.2,41z"/>
	</g>
	<g>
		<path d="M46.2,16.1c-1,0-1.8-0.8-1.8-1.8l0,0c-1,0-1.8-0.8-1.8-1.8s0.8-1.8,1.8-1.8c2,0,3.6,1.6,3.6,3.6
			C48,15.3,47.2,16.1,46.2,16.1z"/>
	</g>
	<g>
		<path d="M44.5,42.8c-1,0-1.8-0.8-1.8-1.8s0.8-1.8,1.8-1.8l0,0c0-1,0.8-1.8,1.8-1.8s1.8,0.8,1.8,1.8C48,41.2,46.5,42.8,44.5,42.8z"
			/>
	</g>
</g>
</svg>
