<?xml version="1.0" encoding="utf-8"?>
<!-- Generator: Adobe Illustrator 25.4.1, SVG Export Plug-In . SVG Version: 6.00 Build 0)  -->
<svg version="1.1" id="레이어_1" xmlns="http://www.w3.org/2000/svg" xmlns:xlink="http://www.w3.org/1999/xlink" x="0px"
	 y="0px" viewBox="0 0 100 100" style="enable-background:new 0 0 100 100;" xml:space="preserve">
<g id="레이어_2_00000092434156358875105110000015697253979242030742_">
</g>
<g id="레이어_1_00000011745732275103260190000003064428127812356507_">
	<path d="M51,19.9c-14.3,0-24.9,1.1-30.7,3.2C1,30.4,2.2,45.9,4.9,59.8c0.9,4.9,1.8,11,2.5,18.2c0.3,2.7,1.8,4.9,4.3,6
		s5.3,0.8,7.5-0.9c4.7-3.4,10.6-7,18.1-10.9c22.3-11.4,21.6-38.8,20.3-49.9C57.4,21,56.3,20,55,20C53.6,19.9,52.3,19.9,51,19.9z
		 M64.5,23.1c0.6,7.3,0.6,18.7-3.1,29.8c-0.6,1.8,1.1,3.6,3.1,2.9C79.1,50.7,89.3,40,95.6,31c1.1-1.7,1.4-3.7,0.5-5.6
		c-0.9-1.8-2.6-3-4.6-3.3c-8.6-0.9-16.7-1.5-24.2-2C65.6,20.1,64.4,21.5,64.5,23.1z"/>
</g>
</svg>
