<?xml version="1.0" encoding="utf-8"?>
<!-- Generator: Adobe Illustrator 25.4.1, SVG Export Plug-In . SVG Version: 6.00 Build 0)  -->
<svg version="1.1"
	 id="레이어_1" xmlns:cc="http://creativecommons.org/ns#" xmlns:dc="http://purl.org/dc/elements/1.1/" xmlns:inkscape="http://www.inkscape.org/namespaces/inkscape" xmlns:rdf="http://www.w3.org/1999/02/22-rdf-syntax-ns#" xmlns:sodipodi="http://sodipodi.sourceforge.net/DTD/sodipodi-0.dtd" xmlns:svg="http://www.w3.org/2000/svg"
	 xmlns="http://www.w3.org/2000/svg" xmlns:xlink="http://www.w3.org/1999/xlink" x="0px" y="0px" viewBox="0 0 100 100"
	 style="enable-background:new 0 0 100 100;" xml:space="preserve">
<g transform="translate(0,-952.36218)">
	<path d="M50,953.8c-26.8,0-48.6,21.8-48.6,48.6c0,26.8,21.8,48.6,48.6,48.6s48.6-21.8,48.6-48.6C98.6,975.6,76.8,953.8,50,953.8z
		 M50,960.5c23.1,0,41.8,18.7,41.8,41.8c0,23.1-18.7,41.8-41.8,41.8s-41.8-18.7-41.8-41.8C8.2,979.2,26.9,960.5,50,960.5z M33,986.5
		c-2.5,0-4.5,2-4.5,4.5c0,2.5,2,4.5,4.5,4.5s4.5-2,4.5-4.5C37.6,988.6,35.5,986.5,33,986.5z M67,986.5c-2.5,0-4.5,2-4.5,4.5
		c0,2.5,2,4.5,4.5,4.5c2.5,0,4.5-2,4.5-4.5C71.5,988.6,69.4,986.5,67,986.5z M50,1015.9c-7.8,0-14.8,2.9-20.3,7.6
		c-1.4,1.2-1.6,3.4-0.4,4.8c1.2,1.4,3.4,1.6,4.8,0.4l0,0c4.4-3.7,9.8-6,15.9-6s11.5,2.2,15.9,6c1.4,1.2,3.6,1,4.8-0.4
		c1.2-1.4,1-3.6-0.4-4.8l0,0C64.8,1018.8,57.8,1015.9,50,1015.9z"/>
</g>
</svg>
