<?xml version="1.0" encoding="utf-8"?>
<!-- Generator: Adobe Illustrator 25.4.1, SVG Export Plug-In . SVG Version: 6.00 Build 0)  -->
<svg version="1.1" id="레이어_1" xmlns="http://www.w3.org/2000/svg" xmlns:xlink="http://www.w3.org/1999/xlink" x="0px"
	 y="0px" viewBox="0 0 100 100" style="enable-background:new 0 0 100 100;" xml:space="preserve">
<path d="M92.8,37.9l-27.8-4l-12.8-26c-0.6-1.2-2-1.7-3.2-1.1c-0.5,0.2-0.9,0.6-1.1,1.1L35,33.8l-27.9,4c-1.5,0.2-2.6,1.6-2.4,3.2
	c0.1,0.6,0.4,1.2,0.8,1.6l20.2,19.7L21,90.5c-0.2,1.4,0.7,2.7,2.1,2.9c0.5,0.1,1.1,0,1.6-0.3L50,79.9l25.3,13.3
	c1.3,0.6,2.8,0.1,3.4-1.2c0.2-0.5,0.3-1,0.2-1.5l-4.8-28.2l20.2-19.7c1.1-1.1,1.1-2.8,0-3.9C94,38.3,93.4,38,92.8,37.9z"/>
</svg>
