<?xml version="1.0" encoding="utf-8"?>
<!-- Generator: Adobe Illustrator 25.4.1, SVG Export Plug-In . SVG Version: 6.00 Build 0)  -->
<svg version="1.1" id="레이어_1" xmlns="http://www.w3.org/2000/svg" xmlns:xlink="http://www.w3.org/1999/xlink" x="0px"
	 y="0px" viewBox="0 0 100 100" style="enable-background:new 0 0 100 100;" xml:space="preserve">
<path d="M66.7,50c0,10.2-2.9,20.1-8.3,28.7C53.3,86.9,46,93.6,37.4,98v-5.1c15.4-8.8,24.9-25,24.9-42.9S52.8,15.9,37.4,7.1V2
	C46,6.4,53.3,13.1,58.5,21.3C63.9,29.9,66.7,39.8,66.7,50z M40,69.3l-2.6-7.1V48.5c-0.4-1.7-1.8-3-3.6-3.2c-2.5-0.2-4.6,1.7-4.6,4.2
	v19.1c0,0.8-0.7,1.5-1.5,1.5s-1.5-0.7-1.5-1.5v-19c0-3.9,3-7.2,6.9-7.4c1.6-0.1,3.1,0.4,4.3,1.3V17.7c0-2.1-1.9-3.7-4-3.7l0,0
	c-1.7,0-3.1,1.1-3.6,2.7l-9.6,31.7v25.5H2.6v18h22.2c6.6,0,11.3-4.1,13.3-6.8C41.3,80.9,41.9,74.5,40,69.3z M96.7,36.3
	c-0.7-0.4-1.6-0.2-2.1,0.5L90.9,43c-3.3-1.2-7.1,0-9.1,3.1c-0.4,0.7-0.7,1.5-0.9,2.3l-7.2-0.2c-0.8,0-1.5,0.6-1.5,1.5
	c0,0.8,0.6,1.5,1.5,1.5l7.2,0.2c0.4,2.1,1.6,4,3.5,5.2s4.2,1.4,6.2,0.8l3.4,6.4c0.3,0.5,0.8,0.8,1.3,0.8c0.2,0,0.5-0.1,0.7-0.2
	c0.7-0.4,1-1.3,0.6-2l-3.4-6.4c0.6-0.5,1.2-1.1,1.6-1.8c1.9-3.1,1.3-7.1-1.3-9.5l3.8-6.2C97.6,37.7,97.4,36.7,96.7,36.3z M93.9,3.1
	c-0.7-1-2.1-1.3-3.2-0.5l-7.7,5.5c-0.7-0.6-1.5-1.1-2.4-1.5c-4.2-1.9-9.1-0.6-11.8,2.9l-8.6-3.9c-1.1-0.5-2.5,0-3,1.1
	c-0.5,1.1,0,2.5,1.1,3l8.6,3.9c-0.9,4.4,1.3,8.9,5.6,10.8c0.9,0.4,1.8,0.7,2.7,0.8l0.9,9.4c0.1,1.2,1.1,2,2.2,2c0.1,0,0.1,0,0.2,0
	c1.2-0.1,2.2-1.2,2-2.5l-0.9-9.4c2.5-0.8,4.6-2.7,5.8-5.2s1.1-5.4,0.2-7.8l7.7-5.5C94.4,5.6,94.6,4.2,93.9,3.1z M91.4,23.8
	c-2.1,0-3.8,1.7-3.8,3.8s1.7,3.8,3.8,3.8s3.8-1.7,3.8-3.8S93.5,23.8,91.4,23.8z M76.3,63c-1.9,0-3.4,1.5-3.4,3.4
	c0,1.9,1.5,3.4,3.4,3.4s3.4-1.5,3.4-3.4C79.7,64.5,78.2,63,76.3,63z"/>
</svg>
