<?xml version="1.0" encoding="utf-8"?>
<!-- Generator: Adobe Illustrator 25.4.1, SVG Export Plug-In . SVG Version: 6.00 Build 0)  -->
<svg version="1.1" id="레이어_1" xmlns="http://www.w3.org/2000/svg" xmlns:xlink="http://www.w3.org/1999/xlink" x="0px"
	 y="0px" viewBox="0 0 100 100" style="enable-background:new 0 0 100 100;" xml:space="preserve">
<g>
	<path d="M68.4,42.4c-5,0-9.8,1.3-14.1,3.9c-2-1.5-4.3-2.7-6.6-3.7c9.3-6.5,11.7-19.3,5.2-28.7S33.5,2.2,24.2,8.7S12.5,28,19,37.4
		c1.4,2,3.2,3.8,5.2,5.2c-11.8,4.8-19.6,16.3-19.6,29v6.9c0,6.1,4.9,11,11,11h33.3c10.8,10.8,28.2,10.8,39,0s10.8-28.2,0-39
		C82.8,45.3,75.7,42.4,68.4,42.4z M21.4,25.6C21.4,17.5,27.9,11,36,11c8.1,0,14.6,6.5,14.6,14.6c0,8.1-6.5,14.6-14.6,14.6
		S21.4,33.6,21.4,25.6L21.4,25.6z M10.6,78.5v-6.9c0-14,11.3-25.3,25.3-25.3c4.8,0,9.4,1.3,13.4,3.8c-9.1,8.7-11.1,22.5-4.9,33.4
		H15.6C12.8,83.5,10.6,81.2,10.6,78.5z M68.4,91.6c-11.9,0-21.6-9.7-21.6-21.6s9.7-21.6,21.6-21.6S90,58,90,70S80.3,91.6,68.4,91.6
		L68.4,91.6z"/>
	<path d="M77.4,68.9h-7.3V58.3c0-1.7-1.3-3-3-3s-3,1.3-3,3v13.6c0,1.7,1.3,3,3,3h10.4c1.7,0,3-1.3,3-3S79.1,68.9,77.4,68.9
		L77.4,68.9z"/>
</g>
</svg>
