<?xml version="1.0" encoding="utf-8"?>
<!-- Generator: Adobe Illustrator 25.4.1, SVG Export Plug-In . SVG Version: 6.00 Build 0)  -->
<svg version="1.1" id="레이어_1" xmlns="http://www.w3.org/2000/svg" xmlns:xlink="http://www.w3.org/1999/xlink" x="0px"
	 y="0px" viewBox="0 0 101 100" style="enable-background:new 0 0 101 100;" xml:space="preserve">
<g>
	<g>
		<path d="M71.1,31.3c-1,1-2,2-3,3c-2.4,2.4-4.8,4.8-7.2,7.2c-2.9,2.9-5.8,5.8-8.6,8.6c-2.5,2.5-5,5-7.5,7.5
			c-1.2,1.2-2.4,2.4-3.6,3.6c-0.1,0.1-0.1,0.1-0.2,0.1c0.3-0.3,0.7-0.5,1-0.8c-0.1,0.1-0.2,0.1-0.2,0.1c0.4-0.2,0.8-0.3,1.2-0.5
			c-0.1,0-0.2,0.1-0.3,0.1c0.4-0.1,0.9-0.1,1.3-0.2c-0.1,0-0.2,0-0.3,0c0.4,0.1,0.9,0.1,1.3,0.2c-0.1,0-0.2,0-0.3-0.1
			c0.4,0.2,0.8,0.3,1.2,0.5c-0.1,0-0.2-0.1-0.2-0.1c0.3,0.3,0.7,0.5,1,0.8c-0.5-0.5-1-1-1.5-1.5c-1.2-1.2-2.3-2.3-3.5-3.5
			c-2.6-2.6-5.2-5.2-7.9-7.9c-0.6-0.6-1.2-1.2-1.8-1.8c-0.9-0.9-2.3-1.5-3.6-1.5c-1.2,0-2.7,0.5-3.6,1.5c-0.9,1-1.5,2.2-1.5,3.6
			c0.1,1.3,0.5,2.6,1.5,3.6c3.2,3.2,6.4,6.4,9.6,9.6c1.5,1.5,3.1,3.1,4.6,4.6c0.1,0.1,0.2,0.2,0.3,0.3c2.4,2.4,6.3,2.4,8.7,0
			c0.2-0.2,0.3-0.3,0.5-0.5c2.9-2.9,5.9-5.9,8.8-8.8c4.3-4.3,8.6-8.6,12.9-12.9c2.5-2.5,5.1-5,7.6-7.6c0,0,0.1-0.1,0.1-0.1
			c0.9-0.9,1.5-2.3,1.5-3.6c0-1.2-0.5-2.7-1.5-3.6c-1-0.9-2.2-1.5-3.6-1.5C73.4,29.9,72.1,30.3,71.1,31.3L71.1,31.3z"/>
	</g>
</g>
<g>
	<g>
		<path d="M89.7,50c0,2-0.1,4-0.4,5.9c0.1-0.4,0.1-0.9,0.2-1.3c-0.5,3.9-1.5,7.6-3,11.2c0.2-0.4,0.3-0.8,0.5-1.2
			c-1.5,3.5-3.4,6.9-5.8,9.9c0.3-0.3,0.5-0.7,0.8-1c-2.3,3-5,5.7-8,8c0.3-0.3,0.7-0.5,1-0.8c-3,2.3-6.4,4.3-9.9,5.8
			c0.4-0.2,0.8-0.3,1.2-0.5c-3.6,1.5-7.4,2.5-11.2,3c0.4-0.1,0.9-0.1,1.3-0.2c-3.9,0.5-7.9,0.5-11.8,0c0.4,0.1,0.9,0.1,1.3,0.2
			c-3.9-0.5-7.6-1.5-11.2-3c0.4,0.2,0.8,0.3,1.2,0.5c-3.5-1.5-6.9-3.4-9.9-5.8c0.3,0.3,0.7,0.5,1,0.8c-3-2.3-5.7-5-8-8
			c0.3,0.3,0.5,0.7,0.8,1c-2.3-3-4.3-6.4-5.8-9.9c0.2,0.4,0.3,0.8,0.5,1.2c-1.5-3.6-2.5-7.4-3-11.2c0.1,0.4,0.1,0.9,0.2,1.3
			c-0.5-3.9-0.5-7.9,0-11.8c-0.1,0.4-0.1,0.9-0.2,1.3c0.5-3.9,1.5-7.6,3-11.2c-0.2,0.4-0.3,0.8-0.5,1.2c1.5-3.5,3.4-6.9,5.8-9.9
			c-0.3,0.3-0.5,0.7-0.8,1c2.3-3,5-5.7,8-8c-0.3,0.3-0.7,0.5-1,0.8c3-2.3,6.4-4.3,9.9-5.8c-0.4,0.2-0.8,0.3-1.2,0.5
			c3.6-1.5,7.4-2.5,11.2-3c-0.4,0.1-0.9,0.1-1.3,0.2c3.9-0.5,7.9-0.5,11.8,0c-0.4-0.1-0.9-0.1-1.3-0.2c3.9,0.5,7.6,1.5,11.2,3
			c-0.4-0.2-0.8-0.3-1.2-0.5c3.5,1.5,6.9,3.4,9.9,5.8c-0.3-0.3-0.7-0.5-1-0.8c3,2.3,5.7,5,8,8c-0.3-0.3-0.5-0.7-0.8-1
			c2.3,3,4.3,6.4,5.8,9.9c-0.2-0.4-0.3-0.8-0.5-1.2c1.5,3.6,2.5,7.4,3,11.2c-0.1-0.4-0.1-0.9-0.2-1.3C89.5,46,89.7,48,89.7,50
			c0,1.3,0.6,2.7,1.5,3.6c0.9,0.9,2.3,1.5,3.6,1.5c1.3-0.1,2.7-0.5,3.6-1.5c0.9-1,1.5-2.2,1.5-3.6c0-5.1-0.8-10.2-2.3-15.1
			c-1.5-4.7-3.7-9.2-6.5-13.2c-1.5-2.1-3.2-4.2-5-6.1c-1.8-1.9-3.8-3.6-5.9-5.2c-3.9-3-8.3-5.3-12.9-7c-4.8-1.7-9.8-2.6-14.9-2.8
			C47.2,0.5,42,1.1,37.1,2.5c-4.7,1.3-9.3,3.4-13.4,6.1c-4.1,2.7-7.8,5.9-10.9,9.7c-1.7,2-3.2,4.2-4.6,6.4c-1.4,2.3-2.5,4.7-3.5,7.1
			c-1.9,4.7-3,9.7-3.4,14.7c-0.4,5.1,0.1,10.3,1.3,15.3c1.2,4.8,3.1,9.5,5.7,13.7c2.5,4.1,5.7,8,9.3,11.2c3.7,3.2,7.7,6,12.2,8
			c2.4,1.1,4.9,2.1,7.5,2.8c2.6,0.7,5.3,1.2,8.1,1.5c5.1,0.6,10.3,0.3,15.3-0.8c4.8-1,9.6-2.8,13.9-5.2c4.2-2.4,8.2-5.4,11.5-8.9
			c3.4-3.5,6.3-7.6,8.4-11.9c2.2-4.5,3.9-9.2,4.6-14.2c0.4-2.7,0.7-5.4,0.7-8.1c0-1.3-0.6-2.7-1.5-3.6c-0.9-0.9-2.3-1.5-3.6-1.5
			c-1.3,0.1-2.7,0.5-3.6,1.5C90.3,47.4,89.7,48.6,89.7,50z"/>
	</g>
</g>
</svg>
