<?xml version="1.0" encoding="utf-8"?>
<!-- Generator: Adobe Illustrator 25.4.1, SVG Export Plug-In . SVG Version: 6.00 Build 0)  -->
<svg version="1.1" id="레이어_1" xmlns="http://www.w3.org/2000/svg" xmlns:xlink="http://www.w3.org/1999/xlink" x="0px"
	 y="0px" viewBox="0 0 100 100" style="enable-background:new 0 0 100 100;" xml:space="preserve">
<g>
	<path d="M73.7,42.7c0,0.8,0.3,1.6,0.9,2.2c0.6,0.6,1.4,0.9,2.2,0.9l0,0c0.8,0,1.6-0.3,2.2-0.9c3-3,4.7-7.1,4.7-11.3
		S82,25.3,79,22.3s-7.1-4.7-11.3-4.7s-8.3,1.7-11.3,4.7L23.5,55.1c-3,3-4.7,7.1-4.7,11.3s1.7,8.3,4.7,11.3s7.1,4.7,11.3,4.7
		s8.3-1.7,11.3-4.7l22.2-22.2l0.1-0.1c3.3-3.7,3.1-9.5-0.4-13.1c-1.8-1.8-4.2-2.8-6.8-2.8l0,0c-2.6,0-5,1-6.8,2.8L36.3,60.6
		c-0.6,0.6-0.9,1.4-0.9,2.2c0,0.8,0.3,1.6,0.9,2.2c1.1,1.1,3.2,1.1,4.4,0l18.3-18.3c1.2-1.2,3.4-1.2,4.8,0c1.4,1.4,1.4,3.4,0,4.8
		L41.8,73.4c-1.9,1.9-4.4,2.9-7,2.9l0,0c-2.6,0-5.1-1-7-2.9c-1.9-1.9-2.9-4.4-2.9-7c0-2.6,1-5.1,2.9-7l32.8-32.8
		c1.9-1.9,4.4-2.9,7-2.9c2.6,0,5.1,1,7,2.9c3.8,3.8,3.8,10.1,0,13.9C74,41.1,73.7,41.9,73.7,42.7z"/>
</g>
</svg>
