<?xml version="1.0" encoding="utf-8"?>
<!-- Generator: Adobe Illustrator 25.4.1, SVG Export Plug-In . SVG Version: 6.00 Build 0)  -->
<svg version="1.1" id="레이어_1" xmlns="http://www.w3.org/2000/svg" xmlns:xlink="http://www.w3.org/1999/xlink" x="0px"
	 y="0px" viewBox="0 0 100 100" style="enable-background:new 0 0 100 100;" xml:space="preserve">
<g>
	<path d="M50,29c-20.3,0-36.7,9.8-48.2,24.9c1.4,1.8,2.9,5.2,4.5,6.9c8.4-10.7,18.5-18.3,32-21.2c0.4-0.1,0.8-0.1,1.1-0.1
		c4.6,0,8.2,3.7,8.2,8.2S43.9,56,39.3,56c-3.4,0-6.2-2-7.6-4.8c0,0.5-0.1,1.1-0.1,1.6C31.7,62.7,39.9,71,50,71s18.3-8.2,18.3-18.3
		c0-5-2-9.6-5.3-12.9c12.9,3.1,22.6,10.6,30.7,20.9c1.6-1.6,3-5,4.5-6.9C86.7,38.8,70.3,29,50,29z"/>
</g>
</svg>
