<?xml version="1.0" encoding="utf-8"?>
<!-- Generator: Adobe Illustrator 25.4.1, SVG Export Plug-In . SVG Version: 6.00 Build 0)  -->
<svg version="1.1" id="레이어_1" xmlns="http://www.w3.org/2000/svg" xmlns:xlink="http://www.w3.org/1999/xlink" x="0px"
	 y="0px" viewBox="0 0 50 50" style="enable-background:new 0 0 50 50;" xml:space="preserve">
<g>
	<g>
		<path d="M17.9,33.9H7.2c-1,0-1.8-0.8-1.8-1.8c0-1,0.8-1.8,1.8-1.8h10.7c1,0,1.8,0.8,1.8,1.8C19.7,33.1,18.9,33.9,17.9,33.9z"/>
	</g>
	<g>
		<path d="M17.9,26.8h-7.2C9.8,26.8,9,26,9,25s0.8-1.8,1.8-1.8h7.2c1,0,1.8,0.8,1.8,1.8S18.9,26.8,17.9,26.8z"/>
	</g>
	<g>
		<path d="M44.6,41H3.7c-1,0-1.8-0.8-1.8-1.8c0-1,0.8-1.8,1.8-1.8h40.9c1,0,1.8,0.8,1.8,1.8C46.3,40.2,45.5,41,44.6,41z"/>
	</g>
	<g>
		<path d="M10.8,21.4c-1,0-1.8-0.8-1.8-1.8v-7.1c0-1,0.8-1.8,1.8-1.8s1.8,0.8,1.8,1.8v7.1C12.6,20.6,11.8,21.4,10.8,21.4z"/>
	</g>
	<g>
		<path d="M28.6,27.2c-1.4,0-2.7-0.4-3.9-1.3c-0.8-0.6-0.9-1.7-0.3-2.5c0.6-0.8,1.7-0.9,2.5-0.3c1,0.8,2.3,0.8,3.3,0
			c0.8-0.6,1.9-0.5,2.5,0.3c0.6,0.8,0.5,1.9-0.3,2.5C31.3,26.7,29.9,27.2,28.6,27.2z"/>
	</g>
	<g>
		<path d="M31.3,26.2c-0.5,0-1-0.2-1.4-0.7c-0.6-0.8-0.5-1.9,0.3-2.5l15-11.9c0.8-0.6,1.9-0.5,2.5,0.3c0.6,0.8,0.5,1.9-0.3,2.5
			l-15,11.9C32.1,26.1,31.7,26.2,31.3,26.2z"/>
	</g>
	<g>
		<path d="M25.8,26.2c-0.4,0-0.8-0.1-1.1-0.4L9.7,14c-0.8-0.6-0.9-1.7-0.3-2.5c0.6-0.8,1.7-0.9,2.5-0.3l15,11.9
			c0.8,0.6,0.9,1.7,0.3,2.5C26.8,26,26.3,26.2,25.8,26.2z"/>
	</g>
	<g>
		<path d="M10.8,14.3c-1,0-1.8-0.8-1.8-1.8c0-2,1.6-3.6,3.6-3.6c1,0,1.8,0.8,1.8,1.8s-0.8,1.8-1.8,1.8h0
			C12.6,13.5,11.8,14.3,10.8,14.3z"/>
	</g>
	<g>
		<path d="M44.6,12.6h-32c-1,0-1.8-0.8-1.8-1.8S11.6,9,12.6,9h32c1,0,1.8,0.8,1.8,1.8S45.5,12.6,44.6,12.6z"/>
	</g>
	<g>
		<path d="M46.3,39.2c-1,0-1.8-0.8-1.8-1.8V12.6c0-1,0.8-1.8,1.8-1.8c1,0,1.8,0.8,1.8,1.8v24.9C48.1,38.4,47.3,39.2,46.3,39.2z"/>
	</g>
	<g>
		<path d="M46.3,14.3c-1,0-1.8-0.8-1.8-1.8v0c-1,0-1.8-0.8-1.8-1.8c0-1,0.8-1.8,1.8-1.8c2,0,3.6,1.6,3.6,3.6
			C48.1,13.5,47.3,14.3,46.3,14.3z"/>
	</g>
	<g>
		<path d="M44.6,41c-1,0-1.8-0.8-1.8-1.8c0-1,0.8-1.8,1.8-1.8h0c0-1,0.8-1.8,1.8-1.8c1,0,1.8,0.8,1.8,1.8C48.1,39.4,46.5,41,44.6,41
			z"/>
	</g>
</g>
</svg>
