<?xml version="1.0" encoding="utf-8"?>
<!-- Generator: Adobe Illustrator 25.4.1, SVG Export Plug-In . SVG Version: 6.00 Build 0)  -->
<svg version="1.1" id="레이어_1" xmlns="http://www.w3.org/2000/svg" xmlns:xlink="http://www.w3.org/1999/xlink" x="0px"
	 y="0px" viewBox="0 0 100 100" style="enable-background:new 0 0 100 100;" xml:space="preserve">
<path d="M50,8.2c-23.4,0-42.4,19-42.4,42.4c0,13.5,6.2,25.9,17,34C32,90.1,40.8,93,50,93s18-2.9,25.4-8.4c10.8-8.1,17-20.5,17-34
	C92.4,27.3,73.4,8.2,50,8.2z M50,85c-6.7,0-13.1-1.9-18.7-5.5c0.1-0.3,0.1-0.7,0.2-1c0-0.2,0.1-0.4,0.1-0.6c0.1-0.5,0.3-0.9,0.4-1.4
	c0-0.1,0.1-0.2,0.1-0.3c0.2-0.5,0.4-1.1,0.7-1.6c0.1-0.2,0.2-0.3,0.2-0.5c0.2-0.4,0.4-0.7,0.6-1.1c0.1-0.2,0.2-0.4,0.4-0.6
	c0.2-0.3,0.4-0.6,0.6-0.9c0.1-0.2,0.3-0.4,0.4-0.6c0.2-0.3,0.4-0.5,0.6-0.8c0.2-0.2,0.3-0.4,0.5-0.5c0.2-0.2,0.4-0.5,0.7-0.7
	c0.2-0.2,0.4-0.3,0.6-0.5c0.2-0.2,0.5-0.4,0.7-0.6c0.2-0.2,0.4-0.3,0.6-0.5c0.3-0.2,0.5-0.4,0.8-0.5c0.2-0.1,0.4-0.3,0.6-0.4
	c0.3-0.2,0.5-0.3,0.8-0.5c0.2-0.1,0.4-0.2,0.7-0.4c0.3-0.1,0.6-0.3,0.9-0.4c0.2-0.1,0.5-0.2,0.7-0.3c0.3-0.1,0.6-0.2,0.9-0.3
	c0.2-0.1,0.5-0.2,0.7-0.2c0.3-0.1,0.7-0.2,1-0.3c0.2-0.1,0.5-0.1,0.7-0.2c0.4-0.1,0.8-0.1,1.2-0.2c0.2,0,0.4-0.1,0.6-0.1
	c0.6-0.1,1.2-0.1,1.8-0.1c0.6,0,1.2,0,1.8,0.1c0.2,0,0.4,0.1,0.6,0.1c0.4,0,0.8,0.1,1.2,0.2c0.2,0,0.5,0.1,0.7,0.2
	c0.3,0.1,0.7,0.2,1,0.3c0.2,0.1,0.5,0.1,0.7,0.2c0.3,0.1,0.6,0.2,0.9,0.3c0.2,0.1,0.5,0.2,0.7,0.3c0.3,0.1,0.6,0.3,0.9,0.4
	c0.2,0.1,0.4,0.2,0.7,0.4c0.3,0.2,0.6,0.3,0.8,0.5c0.2,0.1,0.4,0.3,0.6,0.4c0.3,0.2,0.5,0.4,0.8,0.5c0.2,0.2,0.4,0.3,0.6,0.5
	c0.2,0.2,0.5,0.4,0.7,0.6c0.2,0.2,0.4,0.3,0.6,0.5c0.2,0.2,0.4,0.5,0.7,0.7c0.2,0.2,0.3,0.4,0.5,0.5c0.2,0.2,0.4,0.5,0.6,0.8
	c0.1,0.2,0.3,0.4,0.4,0.6c0.2,0.3,0.4,0.6,0.6,0.9c0.1,0.2,0.2,0.4,0.4,0.6c0.2,0.3,0.4,0.7,0.6,1c0.1,0.2,0.2,0.3,0.3,0.5
	c0.2,0.5,0.5,1,0.7,1.6c0,0.1,0.1,0.2,0.1,0.3c0.2,0.4,0.3,0.9,0.4,1.4c0.1,0.2,0.1,0.4,0.1,0.6c0.1,0.3,0.1,0.6,0.2,1
	C63.1,83.1,56.7,85,50,85z M38.8,43.7c0-6.2,5-11.2,11.2-11.2s11.2,5,11.2,11.2c0,6.2-5,11.2-11.2,11.2S38.8,49.9,38.8,43.7z
	 M75.5,73.8C75.5,73.8,75.4,73.7,75.5,73.8c-0.2-0.7-0.5-1.2-0.7-1.8c0-0.1-0.1-0.2-0.2-0.3c-0.3-0.6-0.5-1.1-0.8-1.7
	c0,0,0-0.1-0.1-0.1c-0.3-0.5-0.6-1-0.9-1.5c-0.1-0.1-0.1-0.2-0.2-0.3c-0.3-0.5-0.7-1-1-1.5c-0.1-0.1-0.1-0.2-0.2-0.3
	c-0.4-0.5-0.8-1-1.2-1.4c0,0,0,0,0,0c-0.4-0.5-0.8-0.9-1.3-1.3c-0.1-0.1-0.2-0.2-0.3-0.3c-0.4-0.4-0.9-0.8-1.3-1.2
	c-0.1-0.1-0.2-0.1-0.2-0.2c-0.4-0.4-0.9-0.7-1.4-1c0,0-0.1-0.1-0.1-0.1c-0.5-0.3-1-0.7-1.5-1c-0.1-0.1-0.2-0.1-0.3-0.2
	c-0.5-0.3-1-0.6-1.6-0.9c-0.1,0-0.2-0.1-0.2-0.1c0,0,0,0,0,0c4.4-3.5,7.2-8.9,7.2-14.9c0-10.6-8.6-19.2-19.2-19.2
	s-19.2,8.6-19.2,19.2c0,6,2.8,11.4,7.2,14.9c0,0,0,0,0,0c-0.1,0-0.2,0.1-0.2,0.1c-0.5,0.3-1.1,0.6-1.6,0.9c-0.1,0.1-0.2,0.1-0.3,0.2
	c-0.5,0.3-1,0.6-1.5,1c0,0-0.1,0.1-0.1,0.1c-0.5,0.3-0.9,0.7-1.3,1c-0.1,0.1-0.2,0.1-0.3,0.2c-0.5,0.4-0.9,0.8-1.3,1.2
	c-0.1,0.1-0.2,0.2-0.3,0.3c-0.4,0.4-0.9,0.9-1.3,1.3c0,0,0,0,0,0c-0.4,0.5-0.8,0.9-1.1,1.4c-0.1,0.1-0.1,0.2-0.2,0.3
	c-0.4,0.5-0.7,1-1,1.5c-0.1,0.1-0.1,0.2-0.2,0.3c-0.3,0.5-0.6,1-0.9,1.5c0,0-0.1,0.1-0.1,0.1c-0.3,0.5-0.6,1.1-0.8,1.6
	c-0.1,0.1-0.1,0.2-0.2,0.4c-0.2,0.6-0.5,1.1-0.7,1.7c0,0,0,0.1,0,0.1c-5.7-6.3-8.9-14.4-8.9-23.1c0-19,15.4-34.4,34.4-34.4
	c19,0,34.4,15.4,34.4,34.4C84.4,59.4,81.2,67.5,75.5,73.8z"/>
</svg>
