<?xml version="1.0" encoding="utf-8"?>
<!-- Generator: Adobe Illustrator 25.4.1, SVG Export Plug-In . SVG Version: 6.00 Build 0)  -->
<svg version="1.1" id="레이어_1" focusable="false"
	 xmlns="http://www.w3.org/2000/svg" xmlns:xlink="http://www.w3.org/1999/xlink" x="0px" y="0px" viewBox="0 0 100 100"
	 style="enable-background:new 0 0 100 100;" xml:space="preserve">
<circle cx="15.2" cy="84.8" r="4.3"/>
<path d="M73.2,18.4c0,7.7-4.7,12-6,17.1h18.4c6,0,10.8,5,10.8,10.5c0,3.2-1.4,6.7-3.5,8.9l0,0c1.8,4.2,1.5,10.1-1.7,14.4
	c1.6,4.7,0,10.4-3,13.5c0.8,3.2,0.4,5.9-1.1,8.1c-3.7,5.3-12.9,5.4-20.6,5.4l-0.5,0c-8.7,0-15.9-3.2-21.6-5.7
	c-2.9-1.3-6.7-2.9-9.5-2.9c-1.2,0-2.1-1-2.1-2.2V46.8c0-0.6,0.2-1.1,0.6-1.5c7.2-7.1,10.3-14.6,16.1-20.5c2.7-2.7,3.7-6.7,4.6-10.7
	c0.8-3.3,2.5-10.5,6.1-10.5C64.5,3.7,73.2,5.1,73.2,18.4z M22.5,44.2H8c-2.4,0-4.3,1.9-4.3,4.3V92c0,2.4,1.9,4.3,4.3,4.3h0.7h13.1
	h0.7c2.4,0,4.3-1.9,4.3-4.3V48.6C26.8,46.2,24.9,44.2,22.5,44.2z"/>
</svg>
