<?xml version="1.0" encoding="utf-8"?>
<!-- Generator: Adobe Illustrator 25.4.1, SVG Export Plug-In . SVG Version: 6.00 Build 0)  -->
<svg version="1.1" id="레이어_1" xmlns="http://www.w3.org/2000/svg" xmlns:xlink="http://www.w3.org/1999/xlink" x="0px"
	 y="0px" viewBox="0 0 100 100" style="enable-background:new 0 0 100 100;" xml:space="preserve">
<g>
	<path d="M49.3,45.7c4.2-3.1,5.5,1.6,10.2,1.2c8-0.7,7.3-10.2,4.7-14.9c-2.3-4.2-8-15.6-7.5-23.6H42.4c2.3,21.5-4.2,25.8-4,32.3
		C38.6,47.9,45.3,48.4,49.3,45.7z"/>
	<path d="M59.9,49.8c-0.9,0-1.9-0.3-2.8-0.9c-2.4-1.2-4.5-1.6-7.3-0.2c-4.5,2.6-8.3,1-9.7,5.7c0.5,0,0.7-0.2,0.7-0.2H41
		c3.8,0.5,5.2,3.3,4.2,6.1c-0.2,0.9-0.3,2.1-0.5,3.6c1.2,1.7,6.1,13,6.1,27.4h9.2c-0.3-3.1-0.3-22,3.5-33.3
		C65.8,52.3,62.5,50,59.9,49.8z"/>
	<path d="M43.6,60.1c0,0,1.2-3.3-2.4-3.8c0,0-3.1,0.5-5.9,0.3c-1.9-0.2-1.4,3.1-0.3,5.7c3.3,7.8,5.5,24.5,5.5,29.3h3.6
		C43.6,85.2,42.2,65.4,43.6,60.1z"/>
</g>
</svg>
