<?xml version="1.0" encoding="utf-8"?>
<!-- Generator: Adobe Illustrator 25.4.1, SVG Export Plug-In . SVG Version: 6.00 Build 0)  -->
<svg version="1.1" id="레이어_1" focusable="false"
	 xmlns="http://www.w3.org/2000/svg" xmlns:xlink="http://www.w3.org/1999/xlink" x="0px" y="0px" viewBox="0 0 100 100"
	 style="enable-background:new 0 0 100 100;" xml:space="preserve">
<path d="M49.5,10.6c-22.6,0-39.9,17.2-39.9,39.8c0,18.1,11.4,33.5,27.6,39c2.1,0.4,2.8-0.9,2.8-2c0-1,0-6.6,0-10
	c0,0-11.4,2.4-13.8-4.9c0,0-1.9-4.7-4.5-6c0,0-3.7-2.6,0.3-2.5c0,0,4.1,0.3,6.3,4.2c3.6,6.3,9.5,4.5,11.9,3.4
	c0.4-2.6,1.4-4.4,2.6-5.5c-9.1-1-18.3-2.3-18.3-18c0-4.5,1.2-6.7,3.8-9.6c-0.4-1.1-1.8-5.4,0.4-11.1c3.4-1.1,11.2,4.4,11.2,4.4
	c3.3-0.9,6.8-1.4,10.2-1.4c3.5,0,7,0.5,10.2,1.4c0,0,7.8-5.5,11.2-4.4c2.2,5.7,0.8,10,0.4,11.1c2.6,2.9,4.2,5.1,4.2,9.6
	c0,15.7-9.6,17-18.7,18c1.5,1.3,2.8,3.7,2.8,7.6c0,5.5,0,12.3,0,13.6c0,1.1,0.7,2.3,2.8,2c16.3-5.4,27.3-20.9,27.3-38.9
	C90.4,27.8,72.1,10.6,49.5,10.6z"/>
</svg>
