<?xml version="1.0" encoding="utf-8"?>
<!-- Generator: Adobe Illustrator 25.4.1, SVG Export Plug-In . SVG Version: 6.00 Build 0)  -->
<svg version="1.1" id="레이어_1" xmlns="http://www.w3.org/2000/svg" xmlns:xlink="http://www.w3.org/1999/xlink" x="0px"
	 y="0px" viewBox="0 0 100 100" style="enable-background:new 0 0 100 100;" xml:space="preserve">
<desc>Created with Sketch.</desc>
<g>
	<g>
		<path d="M69,28.9l-1.9,51c0,0.3-0.3,0.6-0.7,0.6h-33c-0.3,0-0.6-0.3-0.7-0.6l-1.9-51c-0.1-1.9-1.7-3.4-3.6-3.4s-3.4,1.7-3.4,3.6
			l1.9,51c0.1,4.1,3.6,7.4,7.6,7.4h33c4.1,0,7.5-3.3,7.6-7.4l1.9-51c0.1-1.9-1.4-3.6-3.4-3.6C70.7,25.4,69.1,26.9,69,28.9z"/>
		<path d="M47.5,39v34c0,1.4,1.1,2.5,2.5,2.5s2.5-1.1,2.5-2.5V39c0-1.4-1.1-2.5-2.5-2.5S47.5,37.6,47.5,39z"/>
		<path d="M36,39.1l1,34c0,1.4,1.2,2.5,2.6,2.4c1.4,0,2.5-1.2,2.4-2.6l-1-34c0-1.4-1.2-2.5-2.6-2.4S36,37.7,36,39.1z"/>
		<path d="M59,38.9l-1,34c0,1.4,1,2.5,2.4,2.6c1.4,0,2.5-1,2.6-2.4l1-34c0-1.4-1-2.5-2.4-2.6S59,37.5,59,38.9z"/>
		<path d="M25,30h50c1.9,0,3.5-1.6,3.5-3.5S76.9,23,75,23H25c-1.9,0-3.5,1.6-3.5,3.5S23.1,30,25,30z"/>
		<path d="M43.4,24.8l1-4.1c0.1-0.6,1-1.2,1.6-1.2h8c0.6,0,1.4,0.6,1.6,1.2l1,4.1l6.8-1.7l-1-4.1c-0.9-3.7-4.5-6.5-8.4-6.5h-8
			c-3.8,0-7.4,2.8-8.4,6.5l-1,4.1L43.4,24.8z"/>
	</g>
</g>
</svg>
