<?xml version="1.0" encoding="utf-8"?>
<!-- Generator: Adobe Illustrator 25.4.1, SVG Export Plug-In . SVG Version: 6.00 Build 0)  -->
<svg version="1.1" xmlns="http://www.w3.org/2000/svg" xmlns:xlink="http://www.w3.org/1999/xlink" x="0px" y="0px"
	 viewBox="0 0 100 100" style="enable-background:new 0 0 100 100;" xml:space="preserve">
<g id="레이어_2">
</g>
<g id="레이어_1">
	<path d="M87.9,50.8L87.9,50.8h8.4c2.2,0,3.5-2.4,2.4-4.2L83.3,22.1c-1.1-1.8-3.6-1.8-4.7,0L63.3,46.6c-1.1,1.9,0.2,4.2,2.4,4.2H74
		c0,0.6,0,1.3-0.1,2.1C73,67.5,61,79.4,46.4,80.3C28.1,81.5,13.1,66,15,47.7c1.4-13.6,12.2-24.6,25.7-26.2
		c5.7-0.7,11.1,0.2,15.9,2.4c1.5,0.7,3.4,0.1,4.2-1.3l3.7-6.2c1-1.7,0.3-3.9-1.4-4.7C57,8.7,50.2,7.2,43,7.5
		C20.6,8.2,2.2,26.2,1.1,48.4c-1.3,25,18.6,45.8,43.3,45.8C68.3,94.4,87.9,74.9,87.9,50.8z"/>
</g>
</svg>
