<?xml version="1.0" encoding="utf-8"?>
<!-- Generator: Adobe Illustrator 25.4.1, SVG Export Plug-In . SVG Version: 6.00 Build 0)  -->
<svg version="1.1" id="레이어_1" xmlns="http://www.w3.org/2000/svg" xmlns:xlink="http://www.w3.org/1999/xlink" x="0px"
	 y="0px" viewBox="0 0 100 100" style="enable-background:new 0 0 100 100;" xml:space="preserve">
<path d="M91.7,38c0-6.3,0-12.6,0-18.9c0-1.6-0.6-2.1-2.1-2.3c-3.3-0.4-6.6-0.7-9.8-1.4c-10.2-2.2-19.3-7-27.8-12.9
	C50.1,1,50,1,48,2.4c-11.3,7.8-23.3,13.4-37.2,14.3c-2.1,0.1-2.5,0.6-2.5,2.7c0,11.3-0.1,22.7,0.1,34c0,2.8,0.4,5.7,1,8.5
	C11,69.2,15,75.3,20.2,80.5c8.2,8.3,18.1,13.9,28.9,18c0.6,0.2,1.5,0.2,2.1-0.1c3.7-1.6,7.5-3.2,11.2-5.1
	c8.6-4.5,16.2-10.2,22.1-18.1c4.1-5.5,6.8-11.7,7.1-18.6c0.3-6.2,0.1-12.4,0.1-18.6C91.6,38,91.7,38,91.7,38z M74,33.9
	c-0.2,0.3-0.4,0.7-0.6,1c-8.8,12.6-17.6,25.3-26.4,37.9c-1.5,2.1-3,2.1-4.5,0.1c-4.7-6.1-9.5-12.3-14.2-18.4
	c-0.7-0.9-1.3-1.8-1.9-2.8c-0.8-1.4-0.7-2,0.3-3.2c0.2-0.2,0.4-0.4,0.6-0.6c1.5-1.4,2.5-1.6,4.2-0.4c3,2.1,5.8,4.4,8.7,6.7
	c1.4,1.1,2.8,2.2,4.3,3.4c2.4-2.8,4.8-5.5,7.1-8.2c5.2-6,10.4-12,15.6-18c2.2-2.5,3-2.6,5.6-0.5c0.3,0.3,0.7,0.6,1,0.9
	C74.4,32.3,74.5,33.1,74,33.9z"/>
</svg>
