<?xml version="1.0" encoding="utf-8"?>
<!-- Generator: Adobe Illustrator 25.4.1, SVG Export Plug-In . SVG Version: 6.00 Build 0)  -->
<svg version="1.1"
	 id="레이어_1" xmlns:cc="http://creativecommons.org/ns#" xmlns:dc="http://purl.org/dc/elements/1.1/" xmlns:inkscape="http://www.inkscape.org/namespaces/inkscape" xmlns:rdf="http://www.w3.org/1999/02/22-rdf-syntax-ns#" xmlns:sodipodi="http://sodipodi.sourceforge.net/DTD/sodipodi-0.dtd" xmlns:svg="http://www.w3.org/2000/svg"
	 xmlns="http://www.w3.org/2000/svg" xmlns:xlink="http://www.w3.org/1999/xlink" x="0px" y="0px" viewBox="0 0 100 100"
	 style="enable-background:new 0 0 100 100;" xml:space="preserve">
<g transform="translate(0,-952.36218)">
	<g transform="translate(4.9955721,963.33265)">
		<path d="M45,0c-2.4,0-4.6,1.2-5.8,3.3L0.9,68c-1.2,2.1-1.2,4.6,0,6.7C2.1,76.6,4.1,78,6.5,78h77c2.4,0,4.5-1.4,5.6-3.3
			c1.2-2.1,1.2-4.7,0-6.7L50.9,3.3C49.7,1.3,47.4,0,45,0z M45,4c0.9,0,2,0.6,2.4,1.3L85.7,70c0.4,0.8,0.4,1.9,0,2.6
			c-0.6,0.9-1.2,1.4-2.2,1.4h-77c-1,0-1.6-0.5-2.2-1.4c-0.5-0.7-0.5-1.8,0-2.6L42.6,5.4C43,4.6,44.1,4,45,4z M45,22
			c-2.8,0-5,2.2-5,5l1,24c0,2.2,1.8,4,4,4c2.2,0,4-1.8,4-4l1-24C50,24.3,47.8,22,45,22z M45,58c-3.3,0-6,2.7-6,6c0,3.3,2.7,6,6,6
			c3.3,0,6-2.7,6-6C51,60.7,48.3,58,45,58z"/>
	</g>
</g>
</svg>
