<?xml version="1.0" encoding="utf-8"?>
<!-- Generator: Adobe Illustrator 25.4.1, SVG Export Plug-In . SVG Version: 6.00 Build 0)  -->
<svg version="1.1" xmlns="http://www.w3.org/2000/svg" xmlns:xlink="http://www.w3.org/1999/xlink" x="0px" y="0px"
	 viewBox="0 0 100 100" style="enable-background:new 0 0 100 100;" xml:space="preserve">
<g id="레이어_2">
</g>
<g id="레이어_1">
	<g>
		<path d="M5273.1,2399.9v-2c0-2.8-5-4-9.7-4s-9.7,1.3-9.7,4v2c0,1.8,0.7,3.6,2,4.9l5,4.9c0.3,0.3,0.4,0.6,0.4,1v6.4
			c0,0.4,0.2,0.7,0.6,0.8l2.9,0.9c0.5,0.1,1-0.2,1-0.8v-7.2c0-0.4,0.2-0.7,0.4-1l5.1-5C5272.4,2403.5,5273.1,2401.7,5273.1,2399.9z
			 M5263.4,2399.8c-4.8,0-7.4-1.3-7.5-1.8l0,0c0.1-0.5,2.7-1.8,7.5-1.8s7.3,1.3,7.5,1.8C5270.7,2398.5,5268.2,2399.8,5263.4,2399.8z
			"/>
		<path d="M5268.4,2410.1c-0.6,0-1,0.4-1,1s0.4,1,1,1h4.3c0.6,0,1-0.4,1-1s-0.4-1-1-1H5268.4z"/>
		<path d="M5272.7,2413.5h-4.3c-0.6,0-1,0.4-1,1s0.4,1,1,1h4.3c0.6,0,1-0.4,1-1C5273.7,2413.9,5273.3,2413.5,5272.7,2413.5z"/>
		<path d="M5272.7,2416.8h-4.3c-0.6,0-1,0.4-1,1s0.4,1,1,1h4.3c0.6,0,1-0.4,1-1C5273.7,2417.3,5273.3,2416.8,5272.7,2416.8z"/>
	</g>
	<g>
		<path d="M88.1,91.4H12.6c-1.6,0-3,1.3-3,3c0,1.6,1.3,3,3,3h75.5c1.6,0,3-1.3,3-3C91,92.7,89.7,91.4,88.1,91.4z"/>
		<path d="M15.6,84.3c0.3,0,0.5,0,0.8-0.1l11.9-1.4c2.6-0.3,5.1-1.5,7-3.4l53.6-53.6c2.9-2.9,2.9-7.6,0-10.5l-11-10.9
			c-2.8-2.8-7.7-2.8-10.5,0L13.9,58c-1.9,1.9-3.1,4.4-3.4,7L9,76.8c-0.2,2.1,0.4,4.1,1.9,5.5C12.2,83.6,13.9,84.3,15.6,84.3z
			 M37.4,68.9l-13.1-13l37-37L74.4,32L37.4,68.9z M71.6,8.6c0.3-0.3,0.7-0.4,1.1-0.4s0.8,0.2,1.1,0.4l10.9,10.9
			c0.6,0.6,0.6,1.5,0,2.1l-6.1,6.1l-13.1-13L71.6,8.6z M16.3,65.7c0.2-1.3,0.8-2.6,1.7-3.5l2.1-2.1l13.1,13.1l-2.1,2.1
			c-0.9,0.9-2.2,1.6-3.5,1.7l-11.8,1.4c-0.3,0-0.5-0.1-0.6-0.2s-0.3-0.3-0.2-0.6L16.3,65.7z"/>
	</g>
</g>
</svg>
