<?xml version="1.0" encoding="utf-8"?>
<!-- Generator: Adobe Illustrator 25.4.1, SVG Export Plug-In . SVG Version: 6.00 Build 0)  -->
<svg version="1.1" id="레이어_1" xmlns="http://www.w3.org/2000/svg" xmlns:xlink="http://www.w3.org/1999/xlink" x="0px"
	 y="0px" viewBox="0 0 100 100" style="enable-background:new 0 0 100 100;" xml:space="preserve">
<path d="M52.7,69.4C52.7,69.2,52.7,69.2,52.7,69.4c0.2,0,0.2,0,0.2-0.2c0.8-0.3,1.7-0.8,2.5-1.7c8.1-8.1,16.4-16.4,24.6-24.6
	c7-7-3.7-17.6-10.7-10.7c-6.4,6.4-13.1,13.1-19.5,19.5C43.4,45.3,37.1,39,30.7,32.6c-7-7-17.6,3.7-10.7,10.7
	c8.1,8.1,16.4,16.4,24.6,24.6C47.1,70.4,50.2,70.4,52.7,69.4z"/>
</svg>
